<?xml version="1.0" standalone="no"?>
<!DOCTYPE svg PUBLIC "-//W3C//DTD SVG 20010904//EN"
 "http://www.w3.org/TR/2001/REC-SVG-20010904/DTD/svg10.dtd">
<svg version="1.0" xmlns="http://www.w3.org/2000/svg"
 width="499.000000pt" height="499.000000pt" viewBox="0 0 499.000000 499.000000"
 preserveAspectRatio="xMidYMid meet">

<g transform="translate(0.000000,499.000000) scale(0.100000,-0.100000)"
fill="#000000" stroke="none">
<path d="M2228 4211 c-387 -68 -689 -222 -959 -491 -273 -272 -436 -598 -494
-985 -37 -252 -5 -577 82 -818 128 -357 369 -665 683 -872 609 -401 1404 -378
1992 57 107 79 279 251 353 352 221 301 330 618 342 986 6 186 -9 328 -53 496
-169 652 -707 1147 -1379 1269 -141 26 -434 29 -567 6z m374 -689 c85 -71 996
-932 1002 -948 17 -46 -6 -97 -53 -116 -14 -5 -54 -9 -88 -9 l-63 2 0 -476 c0
-512 0 -516 -52 -543 -17 -9 -96 -12 -308 -10 l-285 3 -3 329 c-2 289 -4 332
-19 348 -15 16 -36 18 -237 18 -122 0 -226 -4 -233 -8 -28 -18 -33 -70 -33
-378 l0 -314 -291 0 -291 0 -29 29 -29 29 0 481 0 481 -47 0 c-103 0 -163 39
-163 104 0 26 13 44 73 102 74 73 939 868 970 893 21 17 74 28 108 23 15 -2
47 -20 71 -40z"/>
</g>
</svg>
